<?xml version="1.0" encoding="UTF-8"?>
<svg id="Layer_1" xmlns="http://www.w3.org/2000/svg" viewBox="0 0 200 60">
  <defs>
    <style>
      .cls-1, .cls-2 {
        fill: #828386;
      }

      .cls-2 {
        font-family: MyriadPro-SemiExt, 'Myriad Pro';
        font-size: 7.39px;
      }

      .cls-3 {
        fill: #0075bf;
      }
    </style>
  </defs>
  <text class="cls-2" transform="translate(183.08 12.9)"><tspan x="0" y="0">TM</tspan></text>
  <path class="cls-3" d="M10.43,19.88c2.06-2.48,4.18-3.93,7.28-3.93,4.29,0,7.08,2.27,7.08,7.34v22.17h-4.08v-21.03c0-3-.98-5.01-4.29-5.01-1.5,0-2.95.57-4.03,1.6-1.66,1.5-1.86,3.15-1.86,5.22v19.22h-4.08v-28.73h3.98v3.15Z"/>
  <path class="cls-3" d="M50.35,35.9c.29,5.63-2.93,10.33-9.66,10.33-6.03,0-10.35-3.62-10.35-15.19,0-6.05,1.78-15.09,10.24-15.09,10.35,0,9.78,8.79,10.01,15.5h-15.53c.12,3.87-.63,11.32,5.75,11.32,4.37,0,5.58-3.62,5.29-6.87h4.26ZM45.87,28.09c-.17-3.36.06-8.68-5.23-8.68s-5.41,5.27-5.58,8.68h10.81Z"/>
  <polygon class="cls-3" points="79.3 42 79.42 42 85.23 16.73 90.13 16.73 81.82 45.46 76.91 45.46 71.29 20.19 71.17 20.19 65.9 45.46 61 45.46 52.44 16.73 57.35 16.73 63.39 42 63.51 42 68.78 16.73 73.68 16.73 79.3 42"/>
  <path class="cls-1" d="M97.61,55.17h-4.08V16.73h3.93v3.2h.1c1.29-2.68,3.62-3.82,5.94-3.98,7.28,0,9.4,7.34,9.4,13.23,0,8.16-1.45,17.05-9.2,17.05-2.89,0-4.54-1.45-6.1-3.77v12.71ZM103.04,19.42c-5.32,0-5.43,7.54-5.43,11.63s-.15,11.73,5.48,11.73c4.24,0,5.58-4.45,5.58-12.19,0-3.78-.41-11.16-5.63-11.16"/>
  <path class="cls-1" d="M121.51,21.43h.1c1.71-3.77,4.14-5.37,8.43-5.01v4.03c-5.27-.93-8.37,2.37-8.37,7.59v17.42h-4.08v-28.73h3.92v4.7Z"/>
  <path class="cls-1" d="M134.32,4.83h4.08v5.16h-4.08v-5.16ZM134.32,16.73h4.08v28.73h-4.08v-28.73Z"/>
  <path class="cls-1" d="M149.45,19.88c2.07-2.48,4.18-3.93,7.29-3.93,4.29,0,7.08,2.27,7.08,7.34v22.17h-4.08v-21.03c0-3-.98-5.01-4.29-5.01-1.5,0-2.95.57-4.03,1.6-1.65,1.5-1.86,3.15-1.86,5.22v19.22h-4.08v-28.73h3.98v3.15Z"/>
  <path class="cls-1" d="M176.43,16.73h4.81v3.47h-4.75v19.58c0,.98-.36,2.22,1.91,2.22l2.74-.25v3.46s-3.37.2-4.5.25c-2.43.09-4.23-.36-4.23-4.7v-20.57h-3.98v-3.47h3.98v-5.27l4.03-2.53v7.8Z"/>
</svg>